# xmcd CD database file
#
# Track frame offsets:
#	150
#	17892
#	36126
#	62678
#	77044
#	101865
#	116761
#	135592
#	163165
#	180369
#	200121
#	213091
#	229858
#	253844
#
# Disc length: 3725 seconds
#
# Revision: 1
# Processed by: cddbd v1.5.2PL0 Copyright (c) Steve Scherf et al.
# Submitted via: CDex 1.51
#
DISCID=c50e8b0e
DTITLE=Eric Clapton - Clapton
DYEAR=2010
DGENRE=Blues
TTITLE0=Travelin' Alone
TTITLE1=Rocking Chair
TTITLE2=River Runs Deep
TTITLE3=Judgement Day
TTITLE4=How Deep Is the Ocean
TTITLE5=My Very Good Friend the Milkman
TTITLE6=Can't Hold Out Much Longer
TTITLE7=That's No Way to Get Along
TTITLE8=Everything Will Be Alright
TTITLE9=Diamonds Made from Rain
TTITLE10=When Somebody Thinks You're Wonderful
TTITLE11=Hard Times Blues
TTITLE12=Run Back to Your Side
TTITLE13=Autumn Leaves
EXTD=YEAR: 2010
EXTT0=
EXTT1=
EXTT2=
EXTT3=
EXTT4=
EXTT5=
EXTT6=
EXTT7=
EXTT8=
EXTT9=
EXTT10=
EXTT11=
EXTT12=
EXTT13=
PLAYORDER=
